<?xml version="1.0" encoding="utf-8" standalone="no"?>
<!DOCTYPE svg PUBLIC "-//W3C//DTD SVG 1.1//EN"
  "http://www.w3.org/Graphics/SVG/1.1/DTD/svg11.dtd">
<svg xmlns:xlink="http://www.w3.org/1999/xlink" width="576pt" height="216pt" viewBox="0 0 576 216" xmlns="http://www.w3.org/2000/svg" version="1.1">
 <metadata>
  <rdf:RDF xmlns:dc="http://purl.org/dc/elements/1.1/" xmlns:cc="http://creativecommons.org/ns#" xmlns:rdf="http://www.w3.org/1999/02/22-rdf-syntax-ns#">
   <cc:Work>
    <dc:type rdf:resource="http://purl.org/dc/dcmitype/StillImage"/>
    <dc:date>2023-11-05T17:03:37.726330</dc:date>
    <dc:format>image/svg+xml</dc:format>
    <dc:creator>
     <cc:Agent>
      <dc:title>Matplotlib v3.7.1, https://matplotlib.org/</dc:title>
     </cc:Agent>
    </dc:creator>
   </cc:Work>
  </rdf:RDF>
 </metadata>
 <defs>
  <style type="text/css">*{stroke-linejoin: round; stroke-linecap: butt}</style>
 </defs>
 <g id="figure_1">
  <g id="patch_1">
   <path d="M 0 216 
L 576 216 
L 576 0 
L 0 0 
L 0 216 
z
" style="fill: none; opacity: 0"/>
  </g>
  <g id="axes_1">
   <g id="patch_2">
    <path d="M 53.219481 172.6 
L 285.576799 172.6 
L 285.576799 26.16 
L 53.219481 26.16 
z
" style="fill: #ffffff; fill-opacity: 0.5"/>
   </g>
   <g id="matplotlib.axis_1">
    <g id="xtick_1">
     <g id="line2d_1">
      <path d="M 63.781177 172.6 
L 63.781177 26.16 
" clip-path="url(#p4385235a2c)" style="fill: none; stroke: #b0b0b0; stroke-width: 0.8; stroke-linecap: square"/>
     </g>
     <g id="line2d_2">
      <defs>
       <path id="m2652e35919" d="M 0 0 
L 0 3.5 
" style="stroke: #000000; stroke-width: 0.8"/>
      </defs>
      <g>
       <use xlink:href="#m2652e35919" x="63.781177" y="172.6" style="stroke: #000000; stroke-width: 0.8"/>
      </g>
     </g>
     <g id="text_1">
      <!-- 0 -->
      <g transform="translate(60.599927 187.198438) scale(0.1 -0.1)">
       <defs>
        <path id="DejaVuSans-30" d="M 2034 4250 
Q 1547 4250 1301 3770 
Q 1056 3291 1056 2328 
Q 1056 1369 1301 889 
Q 1547 409 2034 409 
Q 2525 409 2770 889 
Q 3016 1369 3016 2328 
Q 3016 3291 2770 3770 
Q 2525 4250 2034 4250 
z
M 2034 4750 
Q 2819 4750 3233 4129 
Q 3647 3509 3647 2328 
Q 3647 1150 3233 529 
Q 2819 -91 2034 -91 
Q 1250 -91 836 529 
Q 422 1150 422 2328 
Q 422 3509 836 4129 
Q 1250 4750 2034 4750 
z
" transform="scale(0.015625)"/>
       </defs>
       <use xlink:href="#DejaVuSans-30"/>
      </g>
     </g>
    </g>
    <g id="xtick_2">
     <g id="line2d_3">
      <path d="M 134.310034 172.6 
L 134.310034 26.16 
" clip-path="url(#p4385235a2c)" style="fill: none; stroke: #b0b0b0; stroke-width: 0.8; stroke-linecap: square"/>
     </g>
     <g id="line2d_4">
      <g>
       <use xlink:href="#m2652e35919" x="134.310034" y="172.6" style="stroke: #000000; stroke-width: 0.8"/>
      </g>
     </g>
     <g id="text_2">
      <!-- 1 -->
      <g transform="translate(131.128784 187.198438) scale(0.1 -0.1)">
       <defs>
        <path id="DejaVuSans-31" d="M 794 531 
L 1825 531 
L 1825 4091 
L 703 3866 
L 703 4441 
L 1819 4666 
L 2450 4666 
L 2450 531 
L 3481 531 
L 3481 0 
L 794 0 
L 794 531 
z
" transform="scale(0.015625)"/>
       </defs>
       <use xlink:href="#DejaVuSans-31"/>
      </g>
     </g>
    </g>
    <g id="xtick_3">
     <g id="line2d_5">
      <path d="M 204.83889 172.6 
L 204.83889 26.16 
" clip-path="url(#p4385235a2c)" style="fill: none; stroke: #b0b0b0; stroke-width: 0.8; stroke-linecap: square"/>
     </g>
     <g id="line2d_6">
      <g>
       <use xlink:href="#m2652e35919" x="204.83889" y="172.6" style="stroke: #000000; stroke-width: 0.8"/>
      </g>
     </g>
     <g id="text_3">
      <!-- 2 -->
      <g transform="translate(201.65764 187.198438) scale(0.1 -0.1)">
       <defs>
        <path id="DejaVuSans-32" d="M 1228 531 
L 3431 531 
L 3431 0 
L 469 0 
L 469 531 
Q 828 903 1448 1529 
Q 2069 2156 2228 2338 
Q 2531 2678 2651 2914 
Q 2772 3150 2772 3378 
Q 2772 3750 2511 3984 
Q 2250 4219 1831 4219 
Q 1534 4219 1204 4116 
Q 875 4013 500 3803 
L 500 4441 
Q 881 4594 1212 4672 
Q 1544 4750 1819 4750 
Q 2544 4750 2975 4387 
Q 3406 4025 3406 3419 
Q 3406 3131 3298 2873 
Q 3191 2616 2906 2266 
Q 2828 2175 2409 1742 
Q 1991 1309 1228 531 
z
" transform="scale(0.015625)"/>
       </defs>
       <use xlink:href="#DejaVuSans-32"/>
      </g>
     </g>
    </g>
    <g id="xtick_4">
     <g id="line2d_7">
      <path d="M 275.367747 172.6 
L 275.367747 26.16 
" clip-path="url(#p4385235a2c)" style="fill: none; stroke: #b0b0b0; stroke-width: 0.8; stroke-linecap: square"/>
     </g>
     <g id="line2d_8">
      <g>
       <use xlink:href="#m2652e35919" x="275.367747" y="172.6" style="stroke: #000000; stroke-width: 0.8"/>
      </g>
     </g>
     <g id="text_4">
      <!-- 3 -->
      <g transform="translate(272.186497 187.198438) scale(0.1 -0.1)">
       <defs>
        <path id="DejaVuSans-33" d="M 2597 2516 
Q 3050 2419 3304 2112 
Q 3559 1806 3559 1356 
Q 3559 666 3084 287 
Q 2609 -91 1734 -91 
Q 1441 -91 1130 -33 
Q 819 25 488 141 
L 488 750 
Q 750 597 1062 519 
Q 1375 441 1716 441 
Q 2309 441 2620 675 
Q 2931 909 2931 1356 
Q 2931 1769 2642 2001 
Q 2353 2234 1838 2234 
L 1294 2234 
L 1294 2753 
L 1863 2753 
Q 2328 2753 2575 2939 
Q 2822 3125 2822 3475 
Q 2822 3834 2567 4026 
Q 2313 4219 1838 4219 
Q 1578 4219 1281 4162 
Q 984 4106 628 3988 
L 628 4550 
Q 988 4650 1302 4700 
Q 1616 4750 1894 4750 
Q 2613 4750 3031 4423 
Q 3450 4097 3450 3541 
Q 3450 3153 3228 2886 
Q 3006 2619 2597 2516 
z
" transform="scale(0.015625)"/>
       </defs>
       <use xlink:href="#DejaVuSans-33"/>
      </g>
     </g>
    </g>
    <g id="text_5">
     <!-- Time $t$ in seconds -->
     <g transform="translate(125.24814 200.876563) scale(0.1 -0.1)">
      <defs>
       <path id="DejaVuSans-54" d="M -19 4666 
L 3928 4666 
L 3928 4134 
L 2272 4134 
L 2272 0 
L 1638 0 
L 1638 4134 
L -19 4134 
L -19 4666 
z
" transform="scale(0.015625)"/>
       <path id="DejaVuSans-69" d="M 603 3500 
L 1178 3500 
L 1178 0 
L 603 0 
L 603 3500 
z
M 603 4863 
L 1178 4863 
L 1178 4134 
L 603 4134 
L 603 4863 
z
" transform="scale(0.015625)"/>
       <path id="DejaVuSans-6d" d="M 3328 2828 
Q 3544 3216 3844 3400 
Q 4144 3584 4550 3584 
Q 5097 3584 5394 3201 
Q 5691 2819 5691 2113 
L 5691 0 
L 5113 0 
L 5113 2094 
Q 5113 2597 4934 2840 
Q 4756 3084 4391 3084 
Q 3944 3084 3684 2787 
Q 3425 2491 3425 1978 
L 3425 0 
L 2847 0 
L 2847 2094 
Q 2847 2600 2669 2842 
Q 2491 3084 2119 3084 
Q 1678 3084 1418 2786 
Q 1159 2488 1159 1978 
L 1159 0 
L 581 0 
L 581 3500 
L 1159 3500 
L 1159 2956 
Q 1356 3278 1631 3431 
Q 1906 3584 2284 3584 
Q 2666 3584 2933 3390 
Q 3200 3197 3328 2828 
z
" transform="scale(0.015625)"/>
       <path id="DejaVuSans-65" d="M 3597 1894 
L 3597 1613 
L 953 1613 
Q 991 1019 1311 708 
Q 1631 397 2203 397 
Q 2534 397 2845 478 
Q 3156 559 3463 722 
L 3463 178 
Q 3153 47 2828 -22 
Q 2503 -91 2169 -91 
Q 1331 -91 842 396 
Q 353 884 353 1716 
Q 353 2575 817 3079 
Q 1281 3584 2069 3584 
Q 2775 3584 3186 3129 
Q 3597 2675 3597 1894 
z
M 3022 2063 
Q 3016 2534 2758 2815 
Q 2500 3097 2075 3097 
Q 1594 3097 1305 2825 
Q 1016 2553 972 2059 
L 3022 2063 
z
" transform="scale(0.015625)"/>
       <path id="DejaVuSans-20" transform="scale(0.015625)"/>
       <path id="DejaVuSans-Oblique-74" d="M 2706 3500 
L 2619 3053 
L 1472 3053 
L 1100 1153 
Q 1081 1047 1072 975 
Q 1063 903 1063 863 
Q 1063 663 1183 572 
Q 1303 481 1569 481 
L 2150 481 
L 2053 0 
L 1503 0 
Q 991 0 739 200 
Q 488 400 488 806 
Q 488 878 497 964 
Q 506 1050 525 1153 
L 897 3053 
L 409 3053 
L 500 3500 
L 978 3500 
L 1172 4494 
L 1747 4494 
L 1556 3500 
L 2706 3500 
z
" transform="scale(0.015625)"/>
       <path id="DejaVuSans-6e" d="M 3513 2113 
L 3513 0 
L 2938 0 
L 2938 2094 
Q 2938 2591 2744 2837 
Q 2550 3084 2163 3084 
Q 1697 3084 1428 2787 
Q 1159 2491 1159 1978 
L 1159 0 
L 581 0 
L 581 3500 
L 1159 3500 
L 1159 2956 
Q 1366 3272 1645 3428 
Q 1925 3584 2291 3584 
Q 2894 3584 3203 3211 
Q 3513 2838 3513 2113 
z
" transform="scale(0.015625)"/>
       <path id="DejaVuSans-73" d="M 2834 3397 
L 2834 2853 
Q 2591 2978 2328 3040 
Q 2066 3103 1784 3103 
Q 1356 3103 1142 2972 
Q 928 2841 928 2578 
Q 928 2378 1081 2264 
Q 1234 2150 1697 2047 
L 1894 2003 
Q 2506 1872 2764 1633 
Q 3022 1394 3022 966 
Q 3022 478 2636 193 
Q 2250 -91 1575 -91 
Q 1294 -91 989 -36 
Q 684 19 347 128 
L 347 722 
Q 666 556 975 473 
Q 1284 391 1588 391 
Q 1994 391 2212 530 
Q 2431 669 2431 922 
Q 2431 1156 2273 1281 
Q 2116 1406 1581 1522 
L 1381 1569 
Q 847 1681 609 1914 
Q 372 2147 372 2553 
Q 372 3047 722 3315 
Q 1072 3584 1716 3584 
Q 2034 3584 2315 3537 
Q 2597 3491 2834 3397 
z
" transform="scale(0.015625)"/>
       <path id="DejaVuSans-63" d="M 3122 3366 
L 3122 2828 
Q 2878 2963 2633 3030 
Q 2388 3097 2138 3097 
Q 1578 3097 1268 2742 
Q 959 2388 959 1747 
Q 959 1106 1268 751 
Q 1578 397 2138 397 
Q 2388 397 2633 464 
Q 2878 531 3122 666 
L 3122 134 
Q 2881 22 2623 -34 
Q 2366 -91 2075 -91 
Q 1284 -91 818 406 
Q 353 903 353 1747 
Q 353 2603 823 3093 
Q 1294 3584 2113 3584 
Q 2378 3584 2631 3529 
Q 2884 3475 3122 3366 
z
" transform="scale(0.015625)"/>
       <path id="DejaVuSans-6f" d="M 1959 3097 
Q 1497 3097 1228 2736 
Q 959 2375 959 1747 
Q 959 1119 1226 758 
Q 1494 397 1959 397 
Q 2419 397 2687 759 
Q 2956 1122 2956 1747 
Q 2956 2369 2687 2733 
Q 2419 3097 1959 3097 
z
M 1959 3584 
Q 2709 3584 3137 3096 
Q 3566 2609 3566 1747 
Q 3566 888 3137 398 
Q 2709 -91 1959 -91 
Q 1206 -91 779 398 
Q 353 888 353 1747 
Q 353 2609 779 3096 
Q 1206 3584 1959 3584 
z
" transform="scale(0.015625)"/>
       <path id="DejaVuSans-64" d="M 2906 2969 
L 2906 4863 
L 3481 4863 
L 3481 0 
L 2906 0 
L 2906 525 
Q 2725 213 2448 61 
Q 2172 -91 1784 -91 
Q 1150 -91 751 415 
Q 353 922 353 1747 
Q 353 2572 751 3078 
Q 1150 3584 1784 3584 
Q 2172 3584 2448 3432 
Q 2725 3281 2906 2969 
z
M 947 1747 
Q 947 1113 1208 752 
Q 1469 391 1925 391 
Q 2381 391 2643 752 
Q 2906 1113 2906 1747 
Q 2906 2381 2643 2742 
Q 2381 3103 1925 3103 
Q 1469 3103 1208 2742 
Q 947 2381 947 1747 
z
" transform="scale(0.015625)"/>
      </defs>
      <use xlink:href="#DejaVuSans-54" transform="translate(0 0.015625)"/>
      <use xlink:href="#DejaVuSans-69" transform="translate(61.083984 0.015625)"/>
      <use xlink:href="#DejaVuSans-6d" transform="translate(88.867188 0.015625)"/>
      <use xlink:href="#DejaVuSans-65" transform="translate(186.279297 0.015625)"/>
      <use xlink:href="#DejaVuSans-20" transform="translate(247.802734 0.015625)"/>
      <use xlink:href="#DejaVuSans-Oblique-74" transform="translate(279.589844 0.015625)"/>
      <use xlink:href="#DejaVuSans-20" transform="translate(318.798828 0.015625)"/>
      <use xlink:href="#DejaVuSans-69" transform="translate(350.585938 0.015625)"/>
      <use xlink:href="#DejaVuSans-6e" transform="translate(378.369141 0.015625)"/>
      <use xlink:href="#DejaVuSans-20" transform="translate(441.748047 0.015625)"/>
      <use xlink:href="#DejaVuSans-73" transform="translate(473.535156 0.015625)"/>
      <use xlink:href="#DejaVuSans-65" transform="translate(525.634766 0.015625)"/>
      <use xlink:href="#DejaVuSans-63" transform="translate(587.158203 0.015625)"/>
      <use xlink:href="#DejaVuSans-6f" transform="translate(642.138672 0.015625)"/>
      <use xlink:href="#DejaVuSans-6e" transform="translate(703.320312 0.015625)"/>
      <use xlink:href="#DejaVuSans-64" transform="translate(766.699219 0.015625)"/>
      <use xlink:href="#DejaVuSans-73" transform="translate(830.175781 0.015625)"/>
     </g>
    </g>
   </g>
   <g id="matplotlib.axis_2">
    <g id="ytick_1">
     <g id="line2d_9">
      <path d="M 53.219481 163.516939 
L 285.576799 163.516939 
" clip-path="url(#p4385235a2c)" style="fill: none; stroke: #b0b0b0; stroke-width: 0.8; stroke-linecap: square"/>
     </g>
     <g id="line2d_10">
      <defs>
       <path id="m89573daa22" d="M 0 0 
L -3.5 0 
" style="stroke: #000000; stroke-width: 0.8"/>
      </defs>
      <g>
       <use xlink:href="#m89573daa22" x="53.219481" y="163.516939" style="stroke: #000000; stroke-width: 0.8"/>
      </g>
     </g>
     <g id="text_6">
      <!-- $-A_0$ -->
      <g transform="translate(26.219481 167.316157) scale(0.1 -0.1)">
       <defs>
        <path id="DejaVuSans-2212" d="M 678 2272 
L 4684 2272 
L 4684 1741 
L 678 1741 
L 678 2272 
z
" transform="scale(0.015625)"/>
        <path id="DejaVuSans-Oblique-41" d="M 2356 4666 
L 3072 4666 
L 3938 0 
L 3278 0 
L 3084 1197 
L 984 1197 
L 325 0 
L -341 0 
L 2356 4666 
z
M 2584 4044 
L 1275 1722 
L 2988 1722 
L 2584 4044 
z
" transform="scale(0.015625)"/>
       </defs>
       <use xlink:href="#DejaVuSans-2212" transform="translate(0 0.09375)"/>
       <use xlink:href="#DejaVuSans-Oblique-41" transform="translate(83.789062 0.09375)"/>
       <use xlink:href="#DejaVuSans-30" transform="translate(152.197266 -16.3125) scale(0.7)"/>
      </g>
     </g>
    </g>
    <g id="ytick_2">
     <g id="line2d_11">
      <path d="M 53.219481 99.6648 
L 285.576799 99.6648 
" clip-path="url(#p4385235a2c)" style="fill: none; stroke: #b0b0b0; stroke-width: 0.8; stroke-linecap: square"/>
     </g>
     <g id="line2d_12">
      <g>
       <use xlink:href="#m89573daa22" x="53.219481" y="99.6648" style="stroke: #000000; stroke-width: 0.8"/>
      </g>
     </g>
     <g id="text_7">
      <!-- 0 -->
      <g transform="translate(39.856981 103.464018) scale(0.1 -0.1)">
       <use xlink:href="#DejaVuSans-30"/>
      </g>
     </g>
    </g>
    <g id="ytick_3">
     <g id="line2d_13">
      <path d="M 53.219481 35.812661 
L 285.576799 35.812661 
" clip-path="url(#p4385235a2c)" style="fill: none; stroke: #b0b0b0; stroke-width: 0.8; stroke-linecap: square"/>
     </g>
     <g id="line2d_14">
      <g>
       <use xlink:href="#m89573daa22" x="53.219481" y="35.812661" style="stroke: #000000; stroke-width: 0.8"/>
      </g>
     </g>
     <g id="text_8">
      <!-- $A_0$ -->
      <g transform="translate(34.619481 39.611879) scale(0.1 -0.1)">
       <use xlink:href="#DejaVuSans-Oblique-41" transform="translate(0 0.09375)"/>
       <use xlink:href="#DejaVuSans-30" transform="translate(68.408203 -16.3125) scale(0.7)"/>
      </g>
     </g>
    </g>
    <g id="text_9">
     <!-- Amplitude $x(t) = A_0 \sin t\omega(t)$ -->
     <g transform="translate(20.119481 167.33) rotate(-90) scale(0.1 -0.1)">
      <defs>
       <path id="DejaVuSans-41" d="M 2188 4044 
L 1331 1722 
L 3047 1722 
L 2188 4044 
z
M 1831 4666 
L 2547 4666 
L 4325 0 
L 3669 0 
L 3244 1197 
L 1141 1197 
L 716 0 
L 50 0 
L 1831 4666 
z
" transform="scale(0.015625)"/>
       <path id="DejaVuSans-70" d="M 1159 525 
L 1159 -1331 
L 581 -1331 
L 581 3500 
L 1159 3500 
L 1159 2969 
Q 1341 3281 1617 3432 
Q 1894 3584 2278 3584 
Q 2916 3584 3314 3078 
Q 3713 2572 3713 1747 
Q 3713 922 3314 415 
Q 2916 -91 2278 -91 
Q 1894 -91 1617 61 
Q 1341 213 1159 525 
z
M 3116 1747 
Q 3116 2381 2855 2742 
Q 2594 3103 2138 3103 
Q 1681 3103 1420 2742 
Q 1159 2381 1159 1747 
Q 1159 1113 1420 752 
Q 1681 391 2138 391 
Q 2594 391 2855 752 
Q 3116 1113 3116 1747 
z
" transform="scale(0.015625)"/>
       <path id="DejaVuSans-6c" d="M 603 4863 
L 1178 4863 
L 1178 0 
L 603 0 
L 603 4863 
z
" transform="scale(0.015625)"/>
       <path id="DejaVuSans-74" d="M 1172 4494 
L 1172 3500 
L 2356 3500 
L 2356 3053 
L 1172 3053 
L 1172 1153 
Q 1172 725 1289 603 
Q 1406 481 1766 481 
L 2356 481 
L 2356 0 
L 1766 0 
Q 1100 0 847 248 
Q 594 497 594 1153 
L 594 3053 
L 172 3053 
L 172 3500 
L 594 3500 
L 594 4494 
L 1172 4494 
z
" transform="scale(0.015625)"/>
       <path id="DejaVuSans-75" d="M 544 1381 
L 544 3500 
L 1119 3500 
L 1119 1403 
Q 1119 906 1312 657 
Q 1506 409 1894 409 
Q 2359 409 2629 706 
Q 2900 1003 2900 1516 
L 2900 3500 
L 3475 3500 
L 3475 0 
L 2900 0 
L 2900 538 
Q 2691 219 2414 64 
Q 2138 -91 1772 -91 
Q 1169 -91 856 284 
Q 544 659 544 1381 
z
M 1991 3584 
L 1991 3584 
z
" transform="scale(0.015625)"/>
       <path id="DejaVuSans-Oblique-78" d="M 3841 3500 
L 2234 1784 
L 3219 0 
L 2559 0 
L 1819 1388 
L 531 0 
L -166 0 
L 1556 1844 
L 641 3500 
L 1300 3500 
L 1972 2234 
L 3144 3500 
L 3841 3500 
z
" transform="scale(0.015625)"/>
       <path id="DejaVuSans-28" d="M 1984 4856 
Q 1566 4138 1362 3434 
Q 1159 2731 1159 2009 
Q 1159 1288 1364 580 
Q 1569 -128 1984 -844 
L 1484 -844 
Q 1016 -109 783 600 
Q 550 1309 550 2009 
Q 550 2706 781 3412 
Q 1013 4119 1484 4856 
L 1984 4856 
z
" transform="scale(0.015625)"/>
       <path id="DejaVuSans-29" d="M 513 4856 
L 1013 4856 
Q 1481 4119 1714 3412 
Q 1947 2706 1947 2009 
Q 1947 1309 1714 600 
Q 1481 -109 1013 -844 
L 513 -844 
Q 928 -128 1133 580 
Q 1338 1288 1338 2009 
Q 1338 2731 1133 3434 
Q 928 4138 513 4856 
z
" transform="scale(0.015625)"/>
       <path id="DejaVuSans-3d" d="M 678 2906 
L 4684 2906 
L 4684 2381 
L 678 2381 
L 678 2906 
z
M 678 1631 
L 4684 1631 
L 4684 1100 
L 678 1100 
L 678 1631 
z
" transform="scale(0.015625)"/>
       <path id="DejaVuSans-Oblique-3c9" d="M 1369 -91 
Q 72 -91 434 1766 
Q 575 2500 1256 3500 
L 1875 3500 
Q 1231 2500 1088 1750 
Q 819 397 1519 397 
Q 2166 397 2478 2078 
L 3009 2078 
Q 2669 388 3316 397 
Q 4013 403 4275 1750 
Q 4419 2500 4169 3500 
L 4788 3500 
Q 5075 2500 4934 1766 
Q 4578 -94 3278 -91 
Q 2428 -88 2503 844 
Q 2194 -91 1369 -91 
z
" transform="scale(0.015625)"/>
      </defs>
      <use xlink:href="#DejaVuSans-41" transform="translate(0 0.015625)"/>
      <use xlink:href="#DejaVuSans-6d" transform="translate(68.408203 0.015625)"/>
      <use xlink:href="#DejaVuSans-70" transform="translate(165.820312 0.015625)"/>
      <use xlink:href="#DejaVuSans-6c" transform="translate(229.296875 0.015625)"/>
      <use xlink:href="#DejaVuSans-69" transform="translate(257.080078 0.015625)"/>
      <use xlink:href="#DejaVuSans-74" transform="translate(284.863281 0.015625)"/>
      <use xlink:href="#DejaVuSans-75" transform="translate(324.072266 0.015625)"/>
      <use xlink:href="#DejaVuSans-64" transform="translate(387.451172 0.015625)"/>
      <use xlink:href="#DejaVuSans-65" transform="translate(450.927734 0.015625)"/>
      <use xlink:href="#DejaVuSans-20" transform="translate(512.451172 0.015625)"/>
      <use xlink:href="#DejaVuSans-Oblique-78" transform="translate(544.238281 0.015625)"/>
      <use xlink:href="#DejaVuSans-28" transform="translate(603.417969 0.015625)"/>
      <use xlink:href="#DejaVuSans-Oblique-74" transform="translate(642.431641 0.015625)"/>
      <use xlink:href="#DejaVuSans-29" transform="translate(681.640625 0.015625)"/>
      <use xlink:href="#DejaVuSans-3d" transform="translate(740.136719 0.015625)"/>
      <use xlink:href="#DejaVuSans-Oblique-41" transform="translate(843.408203 0.015625)"/>
      <use xlink:href="#DejaVuSans-30" transform="translate(911.816406 -16.390625) scale(0.7)"/>
      <use xlink:href="#DejaVuSans-73" transform="translate(959.086914 0.015625)"/>
      <use xlink:href="#DejaVuSans-69" transform="translate(1011.186523 0.015625)"/>
      <use xlink:href="#DejaVuSans-6e" transform="translate(1038.969727 0.015625)"/>
      <use xlink:href="#DejaVuSans-Oblique-74" transform="translate(1118.584309 0.015625)"/>
      <use xlink:href="#DejaVuSans-Oblique-3c9" transform="translate(1157.793293 0.015625)"/>
      <use xlink:href="#DejaVuSans-28" transform="translate(1241.533528 0.015625)"/>
      <use xlink:href="#DejaVuSans-Oblique-74" transform="translate(1280.5472 0.015625)"/>
      <use xlink:href="#DejaVuSans-29" transform="translate(1319.756184 0.015625)"/>
     </g>
    </g>
   </g>
   <g id="line2d_15">
    <path d="M 63.781177 99.6648 
L 65.191755 61.380177 
L 65.897043 46.797625 
L 66.602332 37.885751 
L 66.954976 36.03173 
L 67.30762 36.080525 
L 67.660265 38.09121 
L 68.012909 42.061617 
L 68.718197 55.542424 
L 69.423486 75.167881 
L 71.891996 151.823577 
L 72.24464 158.104906 
L 72.597285 162.077837 
L 72.949929 163.514409 
L 73.302573 162.285141 
L 73.655217 158.371103 
L 74.007862 151.871745 
L 74.71315 132.117809 
L 76.123727 78.547602 
L 76.829016 54.615104 
L 77.534304 39.345133 
L 77.886949 36.162449 
L 78.239593 36.323513 
L 78.592237 39.899318 
L 78.944882 46.7742 
L 79.65017 69.013722 
L 81.766036 152.320136 
L 82.11868 159.650922 
L 82.471324 163.220031 
L 82.823969 162.715045 
L 83.176613 158.081308 
L 83.529257 149.53873 
L 84.234546 122.952586 
L 85.645123 58.783865 
L 85.997767 47.123191 
L 86.350412 39.276918 
L 86.703056 35.911445 
L 87.0557 37.372383 
L 87.408344 43.64243 
L 87.760989 54.325791 
L 88.466277 85.572796 
L 89.52421 137.889193 
L 89.876854 150.98615 
L 90.229499 159.784402 
L 90.582143 163.44287 
L 90.934787 161.546089 
L 91.287431 154.160037 
L 91.640076 141.847072 
L 92.345364 106.94566 
L 93.403297 53.394147 
L 93.755941 42.123065 
L 94.108586 36.389897 
L 94.46123 36.856132 
L 94.813874 43.582384 
L 95.166519 55.997671 
L 95.871807 92.716186 
L 96.92974 148.499488 
L 97.282384 159.200705 
L 97.635029 163.47157 
L 97.987673 160.735857 
L 98.340317 151.184359 
L 99.045606 116.190949 
L 100.103539 55.331427 
L 100.456183 42.353266 
L 100.808827 36.184631 
L 101.161471 37.6798 
L 101.514116 46.7742 
L 102.219404 82.872382 
L 103.277337 146.027507 
L 103.629981 158.601962 
L 103.982626 163.488503 
L 104.33527 159.923903 
L 104.687914 148.261746 
L 105.393203 107.435356 
L 106.098491 62.133454 
L 106.451136 45.721328 
L 106.80378 36.900226 
L 107.156424 37.044458 
L 107.509068 46.26003 
L 107.861713 63.326538 
L 109.27229 151.746323 
L 109.624934 161.942493 
L 109.977578 162.556052 
L 110.330223 153.36091 
L 110.682867 135.672456 
L 112.093444 45.296278 
L 112.446088 36.463882 
L 112.798733 38.09121 
L 113.151377 50.042368 
L 113.856666 95.889086 
L 114.561954 144.530503 
L 114.914598 159.200705 
L 115.267243 163.424103 
L 115.619887 156.316483 
L 115.972531 139.011219 
L 117.383108 43.840086 
L 117.735753 35.970346 
L 118.088397 40.08971 
L 118.441041 55.560552 
L 119.851618 153.963074 
L 120.204263 163.16715 
L 120.556907 159.722205 
L 120.909551 144.172292 
L 122.320128 43.986766 
L 122.672773 35.890396 
L 123.025417 41.224693 
L 123.378061 59.009012 
L 124.788638 158.980563 
L 125.141283 163.224043 
L 125.493927 153.329228 
L 125.846571 131.35896 
L 126.904504 48.568116 
L 127.257148 36.598786 
L 127.609793 39.274203 
L 127.962437 56.125897 
L 129.373014 159.77595 
L 129.725658 162.752884 
L 130.078303 150.281374 
L 130.783591 93.822226 
L 131.48888 42.591113 
L 131.841524 35.877009 
L 132.194168 45.450253 
L 132.546812 69.013722 
L 133.604745 155.079017 
L 133.95739 163.516912 
L 134.310034 154.962374 
L 134.662678 131.540187 
L 135.720611 43.905124 
L 136.073255 35.829413 
L 136.4259 45.450253 
L 136.778544 70.252854 
L 137.483832 135.603401 
L 137.836477 157.651684 
L 138.189121 163.124886 
L 138.541765 150.281374 
L 139.247054 88.258861 
L 139.599698 57.094892 
L 139.952342 38.461133 
L 140.304987 38.038404 
L 140.657631 56.125897 
L 141.715564 150.761483 
L 142.068208 163.312156 
L 142.420852 156.161474 
L 142.773497 131.35896 
L 143.478785 62.594747 
L 143.83143 40.349036 
L 144.184074 37.020072 
L 144.536718 53.851635 
L 145.594651 151.164601 
L 145.947295 163.439203 
L 146.29994 154.573895 
L 146.652584 127.342307 
L 147.357872 57.045078 
L 147.710517 37.760908 
L 148.063161 39.607394 
L 148.415805 62.133454 
L 149.473738 158.472526 
L 149.826382 162.203796 
L 150.179027 143.769047 
L 151.236959 43.840086 
L 151.589604 36.168592 
L 151.942248 51.65822 
L 153.000181 153.500675 
L 153.352825 163.424103 
L 153.705469 149.418466 
L 154.763402 46.351844 
L 155.116047 35.886327 
L 155.468691 50.042368 
L 156.526624 154.033321 
L 156.879268 163.270061 
L 157.231912 147.255751 
L 158.289845 42.894052 
L 158.642489 36.773548 
L 158.995134 56.32192 
L 160.053067 159.578997 
L 160.405711 160.565017 
L 160.758355 136.003061 
L 161.463644 57.54531 
L 161.816288 36.900226 
L 162.168932 43.105936 
L 162.521576 73.693795 
L 163.226865 150.666091 
L 163.579509 163.489736 
L 163.932154 148.261746 
L 164.990086 40.727637 
L 165.342731 38.461133 
L 165.695375 63.822979 
L 166.400664 144.619624 
L 166.753308 163.207832 
L 167.105952 152.555399 
L 168.163885 42.353266 
L 168.516529 37.701935 
L 168.869174 62.32304 
L 169.574462 144.81508 
L 169.927106 163.324667 
L 170.279751 151.184359 
L 171.337684 40.128895 
L 171.690328 39.621599 
L 172.042972 68.779359 
L 172.748261 151.15966 
L 173.100905 163.249074 
L 173.453549 143.331928 
L 174.158838 58.304301 
L 174.511482 36.389897 
L 174.864126 46.924508 
L 175.922059 160.04181 
L 176.274704 158.242135 
L 176.627348 125.635804 
L 177.332636 43.598375 
L 177.685281 37.78351 
L 178.037925 65.11305 
L 178.743213 150.98615 
L 179.095858 163.071393 
L 179.448502 140.571411 
L 180.153791 52.776737 
L 180.506435 35.821484 
L 180.859079 54.325791 
L 181.564368 142.958554 
L 181.917012 163.418154 
L 182.269656 147.825364 
L 182.974945 58.783865 
L 183.327589 36.122589 
L 183.680233 50.042368 
L 184.385522 139.509555 
L 184.738166 163.115583 
L 185.090811 149.53873 
L 185.796099 59.403449 
L 186.148743 36.109568 
L 186.501388 50.722582 
L 187.206676 141.76544 
L 187.559321 163.432467 
L 187.911965 146.393688 
L 188.617253 54.443653 
L 188.969898 35.829413 
L 189.322542 56.642079 
L 190.027831 149.012564 
L 190.380475 163.006086 
L 190.733119 137.196145 
L 191.438408 45.627618 
L 191.791052 37.951747 
L 192.143696 69.727403 
L 192.848985 158.305157 
L 193.201629 157.918176 
L 193.554273 119.650394 
L 193.906918 68.268585 
L 194.259562 37.387106 
L 194.612206 47.457854 
L 195.317495 141.784289 
L 195.670139 163.514409 
L 196.022783 142.545275 
L 196.728072 47.506022 
L 197.080716 37.553563 
L 197.43336 69.8382 
L 198.138649 159.648058 
L 198.491293 155.505735 
L 199.549226 35.911445 
L 199.90187 55.542424 
L 200.607159 152.324864 
L 200.959803 161.238389 
L 201.312448 126.397119 
L 201.665092 72.424953 
L 202.017736 37.885751 
L 202.37038 47.728743 
L 203.075669 145.837421 
L 203.428313 163.062478 
L 203.780958 133.998372 
L 204.486246 40.03275 
L 204.83889 44.367225 
L 205.544179 142.563851 
L 205.896823 163.399705 
L 206.249467 136.434801 
L 206.954756 40.508158 
L 207.3074 44.130557 
L 208.012689 143.417228 
L 208.365333 163.249074 
L 208.717977 134.11105 
L 209.423266 38.981865 
L 209.77591 46.910377 
L 210.481199 148.174894 
L 210.833843 162.081364 
L 211.186487 126.639779 
L 211.539132 69.734786 
L 211.891776 36.598786 
L 212.24442 53.851635 
L 212.949709 155.387784 
L 213.302353 157.887333 
L 214.360286 36.082824 
L 214.71293 66.931485 
L 215.065575 124.77017 
L 215.418219 161.942493 
L 215.770863 147.522284 
L 216.476152 44.271356 
L 216.828796 41.649953 
L 217.534085 144.052278 
L 217.886729 162.752884 
L 218.239373 127.845893 
L 218.592017 68.852539 
L 218.944662 36.162449 
L 219.297306 57.986804 
L 220.002595 159.693769 
L 220.355239 151.55706 
L 221.060527 46.059329 
L 221.413172 40.876628 
L 222.11846 144.856432 
L 222.471104 162.290038 
L 222.823749 124.045891 
L 223.176393 63.996102 
L 223.529037 35.814832 
L 223.881682 64.972593 
L 224.234326 125.444775 
L 224.58697 162.666808 
L 224.939614 142.743076 
L 225.644903 39.023607 
L 225.997547 50.042368 
L 226.702836 156.961585 
L 227.05548 154.181805 
L 227.760769 46.227982 
L 228.113413 41.649953 
L 228.818702 149.118477 
L 229.171346 160.055396 
L 229.876634 54.003274 
L 230.229279 37.75272 
L 230.581923 80.753934 
L 230.934567 141.96616 
L 231.287212 162.485471 
L 231.639856 122.297461 
L 231.9925 60.114638 
L 232.345144 36.345911 
L 232.697789 74.359764 
L 233.050433 137.196145 
L 233.403077 163.228028 
L 233.755722 126.639779 
L 234.108366 63.340285 
L 234.46101 36.004284 
L 234.813654 71.987292 
L 235.166299 135.637936 
L 235.518943 163.331094 
L 235.871587 127.093487 
L 236.224231 63.175489 
L 236.576876 36.080525 
L 236.92952 73.442063 
L 237.282164 137.519976 
L 237.634809 163.031097 
L 237.987453 123.697849 
L 238.340097 59.64395 
L 238.692741 36.752 
L 239.045386 78.847602 
L 239.39803 142.563851 
L 239.750674 161.739014 
L 240.103319 116.190949 
L 240.455963 53.30784 
L 240.808607 39.010534 
L 241.513896 149.870998 
L 241.86654 158.081308 
L 242.571829 45.472343 
L 242.924473 44.568913 
L 243.629761 157.651684 
L 243.982406 150.082006 
L 244.687694 38.482616 
L 245.040339 55.542424 
L 245.392983 120.781998 
L 245.745627 162.961912 
L 246.098271 135.672456 
L 246.450916 68.698922 
L 246.80356 35.871147 
L 247.156204 73.693795 
L 247.508849 140.410749 
L 247.861493 161.776037 
L 248.214137 113.732345 
L 248.566781 49.874483 
L 248.919426 41.94315 
L 249.624714 156.943128 
L 249.977358 149.870998 
L 250.682647 37.387106 
L 251.035291 60.311797 
L 251.387936 128.414499 
L 251.74058 163.489736 
L 252.093224 124.931461 
L 252.445868 57.094892 
L 252.798513 38.615743 
L 253.503801 153.701981 
L 253.856446 153.000743 
L 254.561734 38.060333 
L 254.914378 59.144511 
L 255.267023 128.227769 
L 255.619667 163.44917 
L 255.972311 122.742314 
L 256.324956 54.443653 
L 256.6776 40.244423 
L 257.382888 157.321965 
L 257.735533 147.671379 
L 258.088177 79.877768 
L 258.440821 36.059538 
L 258.793466 69.66098 
L 259.14611 139.92615 
L 259.498754 160.946509 
L 260.204043 43.779335 
L 260.556687 49.769999 
L 260.909331 117.535155 
L 261.261976 163.16715 
L 261.61462 129.786601 
L 261.967264 58.783865 
L 262.319908 38.894049 
L 263.025197 157.206534 
L 263.377841 146.598225 
L 263.730486 76.602873 
L 264.08313 35.813221 
L 264.435774 76.213668 
L 264.788418 146.552862 
L 265.141063 156.980017 
L 265.846351 38.203173 
L 266.198995 61.675135 
L 266.55164 134.265736 
L 266.904284 162.06546 
L 267.609573 43.598375 
L 267.962217 51.586647 
L 268.314861 122.54736 
L 268.667505 163.508115 
L 269.02015 120.442485 
L 269.372794 49.921613 
L 269.725438 45.186994 
L 270.430727 162.939702 
L 270.783371 128.779595 
L 271.136015 55.663409 
L 271.48866 41.493852 
L 272.193948 161.687731 
L 272.546593 134.104012 
L 272.899237 59.852709 
L 273.251881 39.621599 
L 273.95717 160.674533 
L 274.309814 136.768871 
L 274.662458 61.944372 
L 275.015103 38.955912 
L 275.015103 38.955912 
" clip-path="url(#p4385235a2c)" style="fill: none; stroke: #000000; stroke-width: 0.5; stroke-linecap: square"/>
   </g>
   <g id="line2d_16">
    <path d="M 63.781177 99.65737 
L 64.486466 99.972059 
L 65.191755 100.0459 
L 65.897043 99.840993 
L 67.30762 99.327689 
L 68.012909 99.312551 
L 71.891996 99.728892 
L 74.007862 100.012438 
L 75.065794 100.090935 
L 76.123727 99.895523 
L 77.534304 99.237947 
L 78.592237 98.852099 
L 79.297526 98.847037 
L 80.002814 99.079586 
L 81.413392 99.94809 
L 82.471324 100.486853 
L 83.176613 100.655302 
L 84.234546 100.623936 
L 84.939834 100.409759 
L 85.645123 99.975662 
L 86.350412 99.251039 
L 88.113633 96.961143 
L 88.466277 96.824017 
L 88.818921 96.95543 
L 89.171566 97.40732 
L 89.52421 98.201072 
L 90.229499 100.683931 
L 91.287431 104.902533 
L 91.640076 105.727719 
L 91.99272 105.950329 
L 92.345364 105.439856 
L 92.698009 104.143043 
L 93.403297 99.479986 
L 94.46123 91.05416 
L 94.813874 89.31865 
L 95.166519 88.715933 
L 95.519163 89.469157 
L 95.871807 91.641887 
L 96.577096 99.542759 
L 97.635029 113.130713 
L 97.987673 115.602368 
L 98.340317 116.126024 
L 98.692961 114.436908 
L 99.045606 110.560947 
L 99.750894 97.926352 
L 100.456183 84.158881 
L 100.808827 79.321038 
L 101.161471 77.023951 
L 101.514116 77.808605 
L 101.86676 81.804479 
L 102.572049 97.613642 
L 103.629981 124.167902 
L 103.982626 128.355506 
L 104.33527 128.492583 
L 104.687914 124.287941 
L 105.040558 116.102815 
L 106.451136 70.440876 
L 106.80378 64.721948 
L 107.156424 64.1952 
L 107.509068 69.23889 
L 107.861713 79.355338 
L 109.27229 135.027012 
L 109.624934 141.30852 
L 109.977578 141.019406 
L 110.330223 133.889862 
L 111.035511 103.639314 
L 111.7408 68.434529 
L 112.093444 56.400258 
L 112.446088 51.329551 
L 112.798733 54.39324 
L 113.151377 65.394119 
L 113.856666 103.593623 
L 114.561954 141.531887 
L 114.914598 151.685043 
L 115.267243 152.806566 
L 115.619887 144.367897 
L 115.972531 127.572194 
L 117.030464 60.05706 
L 117.383108 45.71817 
L 117.735753 41.145943 
L 118.088397 47.513566 
L 118.441041 63.941161 
L 119.851618 155.48798 
L 120.204263 162.037797 
L 120.556907 156.354454 
L 120.909551 139.254487 
L 122.320128 40.792234 
L 122.672773 34.466386 
L 123.025417 41.652918 
L 123.378061 61.129289 
L 124.435994 146.051522 
L 124.788638 162.819242 
L 125.141283 165.943636 
L 125.493927 154.495193 
L 126.199215 99.934101 
L 126.904504 44.564574 
L 127.257148 32.816364 
L 127.609793 36.47253 
L 127.962437 54.866802 
L 129.373014 163.147201 
L 129.725658 165.517368 
L 130.078303 151.775707 
L 130.783591 92.330847 
L 131.136235 61.379503 
L 131.48888 40.190878 
L 131.841524 34.216213 
L 132.194168 45.056699 
L 132.899457 102.500681 
L 133.604745 156.458803 
L 133.95739 163.535316 
L 134.310034 153.427416 
L 134.662678 128.850029 
L 135.367967 65.213625 
L 135.720611 43.664805 
L 136.073255 37.828557 
L 136.4259 49.32789 
L 137.131188 107.299309 
L 137.483832 137.25528 
L 137.836477 156.185717 
L 138.189121 158.653027 
L 138.541765 143.986321 
L 139.952342 42.651859 
L 140.304987 45.408504 
L 140.657631 64.4016 
L 141.715564 147.448958 
L 142.068208 155.346903 
L 142.420852 146.004084 
L 143.126141 92.200903 
L 143.478785 64.744427 
L 143.83143 48.703955 
L 144.184074 49.018923 
L 144.536718 65.389399 
L 145.594651 142.481094 
L 145.947295 149.481745 
L 146.29994 140.129241 
L 147.710517 53.819331 
L 148.063161 57.229011 
L 148.415805 74.780289 
L 149.121094 124.842131 
L 149.473738 140.176188 
L 149.826382 141.213678 
L 150.179027 127.933025 
L 151.236959 64.579832 
L 151.589604 60.641131 
L 151.942248 70.590309 
L 153.000181 129.963311 
L 153.352825 135.410495 
L 153.705469 127.737631 
L 154.763402 73.202393 
L 155.116047 67.410667 
L 155.468691 73.81092 
L 156.526624 123.26468 
L 156.879268 128.472117 
L 157.231912 122.486181 
L 158.289845 78.119595 
L 158.642489 74.208298 
L 158.995134 80.438668 
L 160.053067 119.67441 
L 160.405711 121.7772 
L 160.758355 114.87855 
L 161.463644 89.101587 
L 161.816288 81.029299 
L 162.168932 81.051398 
L 162.521576 88.781091 
L 163.226865 111.449888 
L 163.579509 116.715716 
L 163.932154 114.465709 
L 164.990086 87.058361 
L 165.342731 84.736376 
L 165.695375 89.067405 
L 166.400664 106.918616 
L 166.753308 112.290376 
L 167.105952 111.716228 
L 167.458596 105.742021 
L 168.163885 90.434133 
L 168.516529 88.135042 
L 168.869174 91.27711 
L 169.574462 105.374435 
L 169.927106 109.550659 
L 170.279751 108.848736 
L 170.632395 103.822154 
L 171.337684 91.87883 
L 171.690328 90.704765 
L 172.042972 93.932097 
L 172.748261 105.327392 
L 173.100905 107.808926 
L 173.453549 106.146156 
L 174.511482 92.610062 
L 174.864126 93.017607 
L 175.216771 96.776641 
L 175.922059 105.572177 
L 176.274704 106.104143 
L 176.627348 103.287478 
L 177.332636 94.828516 
L 177.685281 93.642927 
L 178.037925 95.675758 
L 178.743213 103.580881 
L 179.095858 105.18009 
L 179.448502 103.75657 
L 180.153791 96.485839 
L 180.506435 94.66325 
L 180.859079 95.64654 
L 181.917012 104.194586 
L 182.269656 103.499979 
L 183.327589 95.541954 
L 183.680233 96.07682 
L 184.738166 103.449266 
L 185.090811 102.968127 
L 186.148743 96.15888 
L 186.501388 96.671446 
L 187.559321 102.935795 
L 187.911965 102.325045 
L 188.617253 97.748867 
L 188.969898 96.605552 
L 189.322542 97.364436 
L 190.027831 101.660444 
L 190.380475 102.51291 
L 190.733119 101.572657 
L 191.438408 97.577717 
L 191.791052 97.05024 
L 192.143696 98.186865 
L 192.848985 101.826722 
L 193.201629 102.00172 
L 193.554273 100.67478 
L 193.906918 98.744343 
L 194.259562 97.474284 
L 194.612206 97.667507 
L 195.670139 101.80812 
L 196.022783 101.249655 
L 196.728072 98.127737 
L 197.080716 97.670851 
L 197.43336 98.564947 
L 198.138649 101.380746 
L 198.491293 101.388677 
L 199.549226 97.905035 
L 199.90187 98.336297 
L 200.607159 100.961723 
L 200.959803 101.30474 
L 201.312448 100.488343 
L 202.017736 98.177183 
L 202.37038 98.319597 
L 203.075669 100.654759 
L 203.428313 101.146518 
L 203.780958 100.556326 
L 204.486246 98.396063 
L 204.83889 98.405271 
L 205.896823 100.988651 
L 206.249467 100.50335 
L 206.954756 98.538659 
L 207.3074 98.536187 
L 208.365333 100.851334 
L 208.717977 100.372412 
L 209.423266 98.619413 
L 209.77591 98.696174 
L 210.481199 100.429952 
L 210.833843 100.721228 
L 211.186487 100.180047 
L 211.539132 99.250695 
L 211.891776 98.673013 
L 212.24442 98.893975 
L 212.949709 100.478083 
L 213.302353 100.567247 
L 214.360286 98.745764 
L 214.71293 99.14612 
L 215.418219 100.507386 
L 215.770863 100.353422 
L 216.476152 98.963977 
L 216.828796 98.887693 
L 217.886729 100.458276 
L 218.239373 100.057604 
L 218.592017 99.336835 
L 218.944662 98.912329 
L 219.297306 99.137232 
L 220.002595 100.335988 
L 220.355239 100.277578 
L 221.060527 99.099794 
L 221.413172 99.010548 
L 222.471104 100.324201 
L 222.823749 99.952061 
L 223.176393 99.336214 
L 223.529037 99.026643 
L 223.881682 99.291364 
L 224.58697 100.264258 
L 224.939614 100.099641 
L 225.644903 99.115942 
L 225.997547 99.191505 
L 226.702836 100.158307 
L 227.05548 100.158029 
L 227.760769 99.224803 
L 228.113413 99.163114 
L 228.818702 100.052986 
L 229.171346 100.164337 
L 230.229279 99.176541 
L 230.581923 99.495182 
L 230.934567 99.968047 
L 231.287212 100.141376 
L 231.639856 99.855253 
L 231.9925 99.392685 
L 232.345144 99.201385 
L 232.697789 99.459818 
L 233.050433 99.908467 
L 233.403077 100.107977 
L 233.755722 99.86954 
L 234.108366 99.435813 
L 234.46101 99.236988 
L 234.813654 99.465071 
L 235.166299 99.887607 
L 235.518943 100.083355 
L 235.871587 99.862851 
L 236.224231 99.453745 
L 236.576876 99.267597 
L 236.92952 99.484967 
L 237.282164 99.877236 
L 237.634809 100.04307 
L 237.987453 99.817176 
L 238.340097 99.435242 
L 238.692741 99.288864 
L 239.045386 99.523691 
L 239.39803 99.893536 
L 239.750674 100.01848 
L 240.808607 99.344063 
L 241.86654 99.985891 
L 242.571829 99.393384 
L 242.924473 99.369471 
L 243.629761 99.921658 
L 243.982406 99.892572 
L 244.687694 99.357739 
L 245.040339 99.43907 
L 245.745627 99.976624 
L 246.098271 99.875879 
L 246.80356 99.431688 
L 247.156204 99.585489 
L 247.508849 99.86348 
L 247.861493 99.94112 
L 248.919426 99.346169 
L 249.624714 99.809834 
L 249.977358 99.807542 
L 250.682647 99.427778 
L 251.035291 99.55281 
L 251.74058 100.023658 
L 252.093224 99.896482 
L 252.445868 99.63556 
L 252.798513 99.536455 
L 253.503801 99.863061 
L 253.856446 99.807056 
L 254.561734 99.274394 
L 254.914378 99.293229 
L 255.619667 99.643189 
L 256.324956 99.445993 
L 256.6776 99.543091 
L 257.382888 100.269686 
L 257.735533 100.371396 
L 259.498754 99.462932 
L 260.204043 98.500728 
L 260.556687 98.43653 
L 260.909331 98.778073 
L 261.967264 100.082773 
L 263.025197 101.236686 
L 263.377841 101.014816 
L 264.435774 99.395381 
L 265.141063 98.918895 
L 265.846351 98.277736 
L 266.904284 97.978826 
L 267.256928 97.905501 
L 267.609573 98.261178 
L 267.962217 99.4272 
L 269.372794 106.885072 
L 269.725438 106.663476 
L 270.078083 104.603044 
L 270.430727 100.503511 
L 271.48866 84.655791 
L 271.841304 83.543275 
L 272.193948 86.435981 
L 272.546593 93.1775 
L 273.604525 120.883213 
L 273.95717 124.221439 
L 274.309814 121.218001 
L 274.662458 112.241392 
L 275.015103 99.665549 
L 275.015103 99.665549 
" clip-path="url(#p4385235a2c)" style="fill: none; stroke: #d62728; stroke-width: 1.5; stroke-linecap: square"/>
   </g>
   <g id="patch_3">
    <path d="M 53.219481 172.6 
L 53.219481 26.16 
" style="fill: none; stroke: #000000; stroke-width: 0.8; stroke-linejoin: miter; stroke-linecap: square"/>
   </g>
   <g id="patch_4">
    <path d="M 285.576799 172.6 
L 285.576799 26.16 
" style="fill: none; stroke: #000000; stroke-width: 0.8; stroke-linejoin: miter; stroke-linecap: square"/>
   </g>
   <g id="patch_5">
    <path d="M 53.219481 172.6 
L 285.576799 172.6 
" style="fill: none; stroke: #000000; stroke-width: 0.8; stroke-linejoin: miter; stroke-linecap: square"/>
   </g>
   <g id="patch_6">
    <path d="M 53.219481 26.16 
L 285.576799 26.16 
" style="fill: none; stroke: #000000; stroke-width: 0.8; stroke-linejoin: miter; stroke-linecap: square"/>
   </g>
   <g id="text_10">
    <!-- Chirp Signal -->
    <g transform="translate(133.125327 20.16) scale(0.12 -0.12)">
     <defs>
      <path id="DejaVuSans-43" d="M 4122 4306 
L 4122 3641 
Q 3803 3938 3442 4084 
Q 3081 4231 2675 4231 
Q 1875 4231 1450 3742 
Q 1025 3253 1025 2328 
Q 1025 1406 1450 917 
Q 1875 428 2675 428 
Q 3081 428 3442 575 
Q 3803 722 4122 1019 
L 4122 359 
Q 3791 134 3420 21 
Q 3050 -91 2638 -91 
Q 1578 -91 968 557 
Q 359 1206 359 2328 
Q 359 3453 968 4101 
Q 1578 4750 2638 4750 
Q 3056 4750 3426 4639 
Q 3797 4528 4122 4306 
z
" transform="scale(0.015625)"/>
      <path id="DejaVuSans-68" d="M 3513 2113 
L 3513 0 
L 2938 0 
L 2938 2094 
Q 2938 2591 2744 2837 
Q 2550 3084 2163 3084 
Q 1697 3084 1428 2787 
Q 1159 2491 1159 1978 
L 1159 0 
L 581 0 
L 581 4863 
L 1159 4863 
L 1159 2956 
Q 1366 3272 1645 3428 
Q 1925 3584 2291 3584 
Q 2894 3584 3203 3211 
Q 3513 2838 3513 2113 
z
" transform="scale(0.015625)"/>
      <path id="DejaVuSans-72" d="M 2631 2963 
Q 2534 3019 2420 3045 
Q 2306 3072 2169 3072 
Q 1681 3072 1420 2755 
Q 1159 2438 1159 1844 
L 1159 0 
L 581 0 
L 581 3500 
L 1159 3500 
L 1159 2956 
Q 1341 3275 1631 3429 
Q 1922 3584 2338 3584 
Q 2397 3584 2469 3576 
Q 2541 3569 2628 3553 
L 2631 2963 
z
" transform="scale(0.015625)"/>
      <path id="DejaVuSans-53" d="M 3425 4513 
L 3425 3897 
Q 3066 4069 2747 4153 
Q 2428 4238 2131 4238 
Q 1616 4238 1336 4038 
Q 1056 3838 1056 3469 
Q 1056 3159 1242 3001 
Q 1428 2844 1947 2747 
L 2328 2669 
Q 3034 2534 3370 2195 
Q 3706 1856 3706 1288 
Q 3706 609 3251 259 
Q 2797 -91 1919 -91 
Q 1588 -91 1214 -16 
Q 841 59 441 206 
L 441 856 
Q 825 641 1194 531 
Q 1563 422 1919 422 
Q 2459 422 2753 634 
Q 3047 847 3047 1241 
Q 3047 1584 2836 1778 
Q 2625 1972 2144 2069 
L 1759 2144 
Q 1053 2284 737 2584 
Q 422 2884 422 3419 
Q 422 4038 858 4394 
Q 1294 4750 2059 4750 
Q 2388 4750 2728 4690 
Q 3069 4631 3425 4513 
z
" transform="scale(0.015625)"/>
      <path id="DejaVuSans-67" d="M 2906 1791 
Q 2906 2416 2648 2759 
Q 2391 3103 1925 3103 
Q 1463 3103 1205 2759 
Q 947 2416 947 1791 
Q 947 1169 1205 825 
Q 1463 481 1925 481 
Q 2391 481 2648 825 
Q 2906 1169 2906 1791 
z
M 3481 434 
Q 3481 -459 3084 -895 
Q 2688 -1331 1869 -1331 
Q 1566 -1331 1297 -1286 
Q 1028 -1241 775 -1147 
L 775 -588 
Q 1028 -725 1275 -790 
Q 1522 -856 1778 -856 
Q 2344 -856 2625 -561 
Q 2906 -266 2906 331 
L 2906 616 
Q 2728 306 2450 153 
Q 2172 0 1784 0 
Q 1141 0 747 490 
Q 353 981 353 1791 
Q 353 2603 747 3093 
Q 1141 3584 1784 3584 
Q 2172 3584 2450 3431 
Q 2728 3278 2906 2969 
L 2906 3500 
L 3481 3500 
L 3481 434 
z
" transform="scale(0.015625)"/>
      <path id="DejaVuSans-61" d="M 2194 1759 
Q 1497 1759 1228 1600 
Q 959 1441 959 1056 
Q 959 750 1161 570 
Q 1363 391 1709 391 
Q 2188 391 2477 730 
Q 2766 1069 2766 1631 
L 2766 1759 
L 2194 1759 
z
M 3341 1997 
L 3341 0 
L 2766 0 
L 2766 531 
Q 2569 213 2275 61 
Q 1981 -91 1556 -91 
Q 1019 -91 701 211 
Q 384 513 384 1019 
Q 384 1609 779 1909 
Q 1175 2209 1959 2209 
L 2766 2209 
L 2766 2266 
Q 2766 2663 2505 2880 
Q 2244 3097 1772 3097 
Q 1472 3097 1187 3025 
Q 903 2953 641 2809 
L 641 3341 
Q 956 3463 1253 3523 
Q 1550 3584 1831 3584 
Q 2591 3584 2966 3190 
Q 3341 2797 3341 1997 
z
" transform="scale(0.015625)"/>
     </defs>
     <use xlink:href="#DejaVuSans-43"/>
     <use xlink:href="#DejaVuSans-68" x="69.824219"/>
     <use xlink:href="#DejaVuSans-69" x="133.203125"/>
     <use xlink:href="#DejaVuSans-72" x="160.986328"/>
     <use xlink:href="#DejaVuSans-70" x="202.099609"/>
     <use xlink:href="#DejaVuSans-20" x="265.576172"/>
     <use xlink:href="#DejaVuSans-53" x="297.363281"/>
     <use xlink:href="#DejaVuSans-69" x="360.839844"/>
     <use xlink:href="#DejaVuSans-67" x="388.623047"/>
     <use xlink:href="#DejaVuSans-6e" x="452.099609"/>
     <use xlink:href="#DejaVuSans-61" x="515.478516"/>
     <use xlink:href="#DejaVuSans-6c" x="576.757812"/>
    </g>
   </g>
   <g id="legend_1">
    <g id="patch_7">
     <path d="M 185.504924 63.51625 
L 278.576799 63.51625 
Q 280.576799 63.51625 280.576799 61.51625 
L 280.576799 33.16 
Q 280.576799 31.16 278.576799 31.16 
L 185.504924 31.16 
Q 183.504924 31.16 183.504924 33.16 
L 183.504924 61.51625 
Q 183.504924 63.51625 185.504924 63.51625 
z
" style="fill: #ffffff; opacity: 0.8; stroke: #cccccc; stroke-linejoin: miter"/>
    </g>
    <g id="line2d_17">
     <path d="M 187.504924 39.258438 
L 197.504924 39.258438 
L 207.504924 39.258438 
" style="fill: none; stroke: #000000; stroke-width: 0.5; stroke-linecap: square"/>
    </g>
    <g id="text_11">
     <!-- Original -->
     <g transform="translate(215.504924 42.758438) scale(0.1 -0.1)">
      <defs>
       <path id="DejaVuSans-4f" d="M 2522 4238 
Q 1834 4238 1429 3725 
Q 1025 3213 1025 2328 
Q 1025 1447 1429 934 
Q 1834 422 2522 422 
Q 3209 422 3611 934 
Q 4013 1447 4013 2328 
Q 4013 3213 3611 3725 
Q 3209 4238 2522 4238 
z
M 2522 4750 
Q 3503 4750 4090 4092 
Q 4678 3434 4678 2328 
Q 4678 1225 4090 567 
Q 3503 -91 2522 -91 
Q 1538 -91 948 565 
Q 359 1222 359 2328 
Q 359 3434 948 4092 
Q 1538 4750 2522 4750 
z
" transform="scale(0.015625)"/>
      </defs>
      <use xlink:href="#DejaVuSans-4f"/>
      <use xlink:href="#DejaVuSans-72" x="78.710938"/>
      <use xlink:href="#DejaVuSans-69" x="119.824219"/>
      <use xlink:href="#DejaVuSans-67" x="147.607422"/>
      <use xlink:href="#DejaVuSans-69" x="211.083984"/>
      <use xlink:href="#DejaVuSans-6e" x="238.867188"/>
      <use xlink:href="#DejaVuSans-61" x="302.246094"/>
      <use xlink:href="#DejaVuSans-6c" x="363.525391"/>
     </g>
    </g>
    <g id="line2d_18">
     <path d="M 187.504924 53.936563 
L 197.504924 53.936563 
L 207.504924 53.936563 
" style="fill: none; stroke: #d62728; stroke-width: 1.5; stroke-linecap: square"/>
    </g>
    <g id="text_12">
     <!-- Bandpassed -->
     <g transform="translate(215.504924 57.436563) scale(0.1 -0.1)">
      <defs>
       <path id="DejaVuSans-42" d="M 1259 2228 
L 1259 519 
L 2272 519 
Q 2781 519 3026 730 
Q 3272 941 3272 1375 
Q 3272 1813 3026 2020 
Q 2781 2228 2272 2228 
L 1259 2228 
z
M 1259 4147 
L 1259 2741 
L 2194 2741 
Q 2656 2741 2882 2914 
Q 3109 3088 3109 3444 
Q 3109 3797 2882 3972 
Q 2656 4147 2194 4147 
L 1259 4147 
z
M 628 4666 
L 2241 4666 
Q 2963 4666 3353 4366 
Q 3744 4066 3744 3513 
Q 3744 3084 3544 2831 
Q 3344 2578 2956 2516 
Q 3422 2416 3680 2098 
Q 3938 1781 3938 1306 
Q 3938 681 3513 340 
Q 3088 0 2303 0 
L 628 0 
L 628 4666 
z
" transform="scale(0.015625)"/>
      </defs>
      <use xlink:href="#DejaVuSans-42"/>
      <use xlink:href="#DejaVuSans-61" x="68.603516"/>
      <use xlink:href="#DejaVuSans-6e" x="129.882812"/>
      <use xlink:href="#DejaVuSans-64" x="193.261719"/>
      <use xlink:href="#DejaVuSans-70" x="256.738281"/>
      <use xlink:href="#DejaVuSans-61" x="320.214844"/>
      <use xlink:href="#DejaVuSans-73" x="381.494141"/>
      <use xlink:href="#DejaVuSans-73" x="433.59375"/>
      <use xlink:href="#DejaVuSans-65" x="485.693359"/>
      <use xlink:href="#DejaVuSans-64" x="547.216797"/>
     </g>
    </g>
   </g>
  </g>
  <g id="axes_2">
   <g id="patch_8">
    <path d="M 332.842682 172.6 
L 565.2 172.6 
L 565.2 26.16 
L 332.842682 26.16 
z
" style="fill: #ffffff; fill-opacity: 0.5"/>
   </g>
   <g id="matplotlib.axis_3">
    <g id="xtick_5">
     <g id="line2d_19">
      <path d="M 343.404379 172.6 
L 343.404379 26.16 
" clip-path="url(#p7d1196b920)" style="fill: none; stroke: #b0b0b0; stroke-width: 0.8; stroke-linecap: square"/>
     </g>
     <g id="line2d_20">
      <g>
       <use xlink:href="#m2652e35919" x="343.404379" y="172.6" style="stroke: #000000; stroke-width: 0.8"/>
      </g>
     </g>
     <g id="text_13">
      <!-- 0 -->
      <g transform="translate(340.223129 187.198438) scale(0.1 -0.1)">
       <use xlink:href="#DejaVuSans-30"/>
      </g>
     </g>
    </g>
    <g id="xtick_6">
     <g id="line2d_21">
      <path d="M 449.021341 172.6 
L 449.021341 26.16 
" clip-path="url(#p7d1196b920)" style="fill: none; stroke: #b0b0b0; stroke-width: 0.8; stroke-linecap: square"/>
     </g>
     <g id="line2d_22">
      <g>
       <use xlink:href="#m2652e35919" x="449.021341" y="172.6" style="stroke: #000000; stroke-width: 0.8"/>
      </g>
     </g>
     <g id="text_14">
      <!-- $\pi/2$ -->
      <g transform="translate(441.321341 187.198438) scale(0.1 -0.1)">
       <defs>
        <path id="DejaVuSans-Oblique-3c0" d="M 584 3500 
L 3938 3500 
L 3825 2925 
L 3384 2925 
L 2966 775 
Q 2922 550 2981 450 
Q 3038 353 3209 353 
Q 3256 353 3325 363 
Q 3397 369 3419 372 
L 3338 -44 
Q 3222 -84 3103 -103 
Q 2981 -122 2866 -122 
Q 2491 -122 2388 81 
Q 2284 288 2391 838 
L 2797 2925 
L 1506 2925 
L 938 0 
L 350 0 
L 919 2925 
L 472 2925 
L 584 3500 
z
" transform="scale(0.015625)"/>
        <path id="DejaVuSans-2f" d="M 1625 4666 
L 2156 4666 
L 531 -594 
L 0 -594 
L 1625 4666 
z
" transform="scale(0.015625)"/>
       </defs>
       <use xlink:href="#DejaVuSans-Oblique-3c0" transform="translate(0 0.78125)"/>
       <use xlink:href="#DejaVuSans-2f" transform="translate(60.205078 0.78125)"/>
       <use xlink:href="#DejaVuSans-32" transform="translate(90.271484 0.78125)"/>
      </g>
     </g>
    </g>
    <g id="xtick_7">
     <g id="line2d_23">
      <path d="M 554.638304 172.6 
L 554.638304 26.16 
" clip-path="url(#p7d1196b920)" style="fill: none; stroke: #b0b0b0; stroke-width: 0.8; stroke-linecap: square"/>
     </g>
     <g id="line2d_24">
      <g>
       <use xlink:href="#m2652e35919" x="554.638304" y="172.6" style="stroke: #000000; stroke-width: 0.8"/>
      </g>
     </g>
     <g id="text_15">
      <!-- $\pi$ -->
      <g transform="translate(551.588304 187.198438) scale(0.1 -0.1)">
       <use xlink:href="#DejaVuSans-Oblique-3c0" transform="translate(0 0.3125)"/>
      </g>
     </g>
    </g>
    <g id="text_16">
     <!-- Angular Frequency $\omega$ in radians/second -->
     <g transform="translate(350.121341 200.878125) scale(0.1 -0.1)">
      <defs>
       <path id="DejaVuSans-46" d="M 628 4666 
L 3309 4666 
L 3309 4134 
L 1259 4134 
L 1259 2759 
L 3109 2759 
L 3109 2228 
L 1259 2228 
L 1259 0 
L 628 0 
L 628 4666 
z
" transform="scale(0.015625)"/>
       <path id="DejaVuSans-71" d="M 947 1747 
Q 947 1113 1208 752 
Q 1469 391 1925 391 
Q 2381 391 2643 752 
Q 2906 1113 2906 1747 
Q 2906 2381 2643 2742 
Q 2381 3103 1925 3103 
Q 1469 3103 1208 2742 
Q 947 2381 947 1747 
z
M 2906 525 
Q 2725 213 2448 61 
Q 2172 -91 1784 -91 
Q 1150 -91 751 415 
Q 353 922 353 1747 
Q 353 2572 751 3078 
Q 1150 3584 1784 3584 
Q 2172 3584 2448 3432 
Q 2725 3281 2906 2969 
L 2906 3500 
L 3481 3500 
L 3481 -1331 
L 2906 -1331 
L 2906 525 
z
" transform="scale(0.015625)"/>
       <path id="DejaVuSans-79" d="M 2059 -325 
Q 1816 -950 1584 -1140 
Q 1353 -1331 966 -1331 
L 506 -1331 
L 506 -850 
L 844 -850 
Q 1081 -850 1212 -737 
Q 1344 -625 1503 -206 
L 1606 56 
L 191 3500 
L 800 3500 
L 1894 763 
L 2988 3500 
L 3597 3500 
L 2059 -325 
z
" transform="scale(0.015625)"/>
      </defs>
      <use xlink:href="#DejaVuSans-41" transform="translate(0 0.015625)"/>
      <use xlink:href="#DejaVuSans-6e" transform="translate(68.408203 0.015625)"/>
      <use xlink:href="#DejaVuSans-67" transform="translate(131.787109 0.015625)"/>
      <use xlink:href="#DejaVuSans-75" transform="translate(195.263672 0.015625)"/>
      <use xlink:href="#DejaVuSans-6c" transform="translate(258.642578 0.015625)"/>
      <use xlink:href="#DejaVuSans-61" transform="translate(286.425781 0.015625)"/>
      <use xlink:href="#DejaVuSans-72" transform="translate(347.705078 0.015625)"/>
      <use xlink:href="#DejaVuSans-20" transform="translate(388.818359 0.015625)"/>
      <use xlink:href="#DejaVuSans-46" transform="translate(420.605469 0.015625)"/>
      <use xlink:href="#DejaVuSans-72" transform="translate(478.125 0.015625)"/>
      <use xlink:href="#DejaVuSans-65" transform="translate(519.238281 0.015625)"/>
      <use xlink:href="#DejaVuSans-71" transform="translate(580.761719 0.015625)"/>
      <use xlink:href="#DejaVuSans-75" transform="translate(644.238281 0.015625)"/>
      <use xlink:href="#DejaVuSans-65" transform="translate(707.617188 0.015625)"/>
      <use xlink:href="#DejaVuSans-6e" transform="translate(769.140625 0.015625)"/>
      <use xlink:href="#DejaVuSans-63" transform="translate(832.519531 0.015625)"/>
      <use xlink:href="#DejaVuSans-79" transform="translate(887.5 0.015625)"/>
      <use xlink:href="#DejaVuSans-20" transform="translate(946.679688 0.015625)"/>
      <use xlink:href="#DejaVuSans-Oblique-3c9" transform="translate(978.466797 0.015625)"/>
      <use xlink:href="#DejaVuSans-20" transform="translate(1062.207031 0.015625)"/>
      <use xlink:href="#DejaVuSans-69" transform="translate(1093.994141 0.015625)"/>
      <use xlink:href="#DejaVuSans-6e" transform="translate(1121.777344 0.015625)"/>
      <use xlink:href="#DejaVuSans-20" transform="translate(1185.15625 0.015625)"/>
      <use xlink:href="#DejaVuSans-72" transform="translate(1216.943359 0.015625)"/>
      <use xlink:href="#DejaVuSans-61" transform="translate(1258.056641 0.015625)"/>
      <use xlink:href="#DejaVuSans-64" transform="translate(1319.335938 0.015625)"/>
      <use xlink:href="#DejaVuSans-69" transform="translate(1382.8125 0.015625)"/>
      <use xlink:href="#DejaVuSans-61" transform="translate(1410.595703 0.015625)"/>
      <use xlink:href="#DejaVuSans-6e" transform="translate(1471.875 0.015625)"/>
      <use xlink:href="#DejaVuSans-73" transform="translate(1535.253906 0.015625)"/>
      <use xlink:href="#DejaVuSans-2f" transform="translate(1587.353516 0.015625)"/>
      <use xlink:href="#DejaVuSans-73" transform="translate(1621.044922 0.015625)"/>
      <use xlink:href="#DejaVuSans-65" transform="translate(1673.144531 0.015625)"/>
      <use xlink:href="#DejaVuSans-63" transform="translate(1734.667969 0.015625)"/>
      <use xlink:href="#DejaVuSans-6f" transform="translate(1789.648438 0.015625)"/>
      <use xlink:href="#DejaVuSans-6e" transform="translate(1850.830078 0.015625)"/>
      <use xlink:href="#DejaVuSans-64" transform="translate(1914.208984 0.015625)"/>
     </g>
    </g>
   </g>
   <g id="matplotlib.axis_4">
    <g id="ytick_4">
     <g id="line2d_25">
      <path d="M 332.842682 165.943644 
L 565.2 165.943644 
" clip-path="url(#p7d1196b920)" style="fill: none; stroke: #b0b0b0; stroke-width: 0.8; stroke-linecap: square"/>
     </g>
     <g id="line2d_26">
      <g>
       <use xlink:href="#m89573daa22" x="332.842682" y="165.943644" style="stroke: #000000; stroke-width: 0.8"/>
      </g>
     </g>
     <g id="text_17">
      <!-- 0 -->
      <g transform="translate(319.480182 169.742863) scale(0.1 -0.1)">
       <use xlink:href="#DejaVuSans-30"/>
      </g>
     </g>
    </g>
    <g id="ytick_5">
     <g id="line2d_27">
      <path d="M 332.842682 32.816364 
L 565.2 32.816364 
" clip-path="url(#p7d1196b920)" style="fill: none; stroke: #b0b0b0; stroke-width: 0.8; stroke-linecap: square"/>
     </g>
     <g id="line2d_28">
      <g>
       <use xlink:href="#m89573daa22" x="332.842682" y="32.816364" style="stroke: #000000; stroke-width: 0.8"/>
      </g>
     </g>
     <g id="text_18">
      <!-- $\hat A_0$ -->
      <g transform="translate(314.142682 38.17652) scale(0.1 -0.1)">
       <defs>
        <path id="DejaVuSans-302" d="M -1831 5119 
L -1369 5119 
L -603 3944 
L -1038 3944 
L -1600 4709 
L -2163 3944 
L -2597 3944 
L -1831 5119 
z
M -1600 3584 
L -1600 3584 
z
" transform="scale(0.015625)"/>
       </defs>
       <use xlink:href="#DejaVuSans-302" transform="translate(66.289062 30.015625)"/>
       <use xlink:href="#DejaVuSans-Oblique-41" transform="translate(0 0.609375)"/>
       <use xlink:href="#DejaVuSans-30" transform="translate(69.365234 -15.796875) scale(0.7)"/>
      </g>
     </g>
    </g>
    <g id="text_19">
     <!-- Spectral amplitude $|\hat x(\omega)|$ -->
     <g transform="translate(307.742682 163.08) rotate(-90) scale(0.1 -0.1)">
      <defs>
       <path id="DejaVuSans-7c" d="M 1344 4891 
L 1344 -1509 
L 813 -1509 
L 813 4891 
L 1344 4891 
z
" transform="scale(0.015625)"/>
      </defs>
      <use xlink:href="#DejaVuSans-53" transform="translate(0 0.828125)"/>
      <use xlink:href="#DejaVuSans-70" transform="translate(63.476562 0.828125)"/>
      <use xlink:href="#DejaVuSans-65" transform="translate(126.953125 0.828125)"/>
      <use xlink:href="#DejaVuSans-63" transform="translate(188.476562 0.828125)"/>
      <use xlink:href="#DejaVuSans-74" transform="translate(243.457031 0.828125)"/>
      <use xlink:href="#DejaVuSans-72" transform="translate(282.666016 0.828125)"/>
      <use xlink:href="#DejaVuSans-61" transform="translate(323.779297 0.828125)"/>
      <use xlink:href="#DejaVuSans-6c" transform="translate(385.058594 0.828125)"/>
      <use xlink:href="#DejaVuSans-20" transform="translate(412.841797 0.828125)"/>
      <use xlink:href="#DejaVuSans-61" transform="translate(444.628906 0.828125)"/>
      <use xlink:href="#DejaVuSans-6d" transform="translate(505.908203 0.828125)"/>
      <use xlink:href="#DejaVuSans-70" transform="translate(603.320312 0.828125)"/>
      <use xlink:href="#DejaVuSans-6c" transform="translate(666.796875 0.828125)"/>
      <use xlink:href="#DejaVuSans-69" transform="translate(694.580078 0.828125)"/>
      <use xlink:href="#DejaVuSans-74" transform="translate(722.363281 0.828125)"/>
      <use xlink:href="#DejaVuSans-75" transform="translate(761.572266 0.828125)"/>
      <use xlink:href="#DejaVuSans-64" transform="translate(824.951172 0.828125)"/>
      <use xlink:href="#DejaVuSans-65" transform="translate(888.427734 0.828125)"/>
      <use xlink:href="#DejaVuSans-20" transform="translate(949.951172 0.828125)"/>
      <use xlink:href="#DejaVuSans-7c" transform="translate(981.738281 0.828125)"/>
      <use xlink:href="#DejaVuSans-302" transform="translate(1079.65625 12.015625)"/>
      <use xlink:href="#DejaVuSans-Oblique-78" transform="translate(1015.429688 0.828125)"/>
      <use xlink:href="#DejaVuSans-28" transform="translate(1078.023438 0.828125)"/>
      <use xlink:href="#DejaVuSans-Oblique-3c9" transform="translate(1117.037109 0.828125)"/>
      <use xlink:href="#DejaVuSans-29" transform="translate(1200.777344 0.828125)"/>
      <use xlink:href="#DejaVuSans-7c" transform="translate(1239.791016 0.828125)"/>
     </g>
    </g>
   </g>
   <g id="line2d_29">
    <path d="M 343.404379 165.582447 
L 345.516718 165.568722 
L 347.629057 165.260568 
L 349.037283 164.965483 
L 349.741396 164.701063 
L 351.149623 163.795112 
L 351.853736 163.157872 
L 352.557849 162.364613 
L 353.261962 161.323553 
L 353.966075 159.902926 
L 354.670188 157.983589 
L 355.374301 155.49364 
L 356.078414 152.387448 
L 356.782527 148.592047 
L 357.48664 143.9783 
L 358.190753 138.385487 
L 358.894867 131.678394 
L 360.303093 114.910908 
L 363.823658 68.041536 
L 365.231884 54.443337 
L 366.64011 44.309637 
L 367.344224 40.452222 
L 368.048337 37.484438 
L 368.75245 35.373273 
L 369.456563 33.992302 
L 370.160676 33.158184 
L 370.864789 32.816364 
L 371.568902 32.961902 
L 372.273015 33.460746 
L 373.681241 34.680817 
L 374.385354 35.189598 
L 375.089467 35.497013 
L 375.793581 35.524443 
L 378.610033 34.807456 
L 381.426485 35.110904 
L 382.834711 34.938473 
L 384.947051 35.073772 
L 386.355277 34.981169 
L 387.763503 35.054871 
L 389.171729 35.024117 
L 391.988181 35.051387 
L 393.396408 35.006362 
L 394.804634 35.048631 
L 395.508747 34.970061 
L 397.621086 35.061293 
L 399.029312 34.931269 
L 401.141652 35.135131 
L 403.958104 34.905343 
L 406.070443 35.54585 
L 406.774556 35.463634 
L 407.478669 35.107408 
L 408.886895 33.9899 
L 409.591009 33.357213 
L 410.295122 32.897497 
L 410.999235 32.839482 
L 411.703348 33.268723 
L 412.407461 34.193542 
L 413.111574 35.680949 
L 413.815687 37.930803 
L 414.5198 41.062449 
L 415.223913 45.071376 
L 415.928026 49.889697 
L 417.336252 61.954759 
L 418.744479 77.876357 
L 422.969157 132.940945 
L 423.67327 139.437756 
L 424.377383 144.840159 
L 425.081496 149.297883 
L 425.785609 152.965049 
L 426.489723 155.956145 
L 427.193836 158.33833 
L 427.897949 160.1619 
L 428.602062 161.507661 
L 429.306175 162.501458 
L 430.714401 163.898854 
L 432.122627 164.765911 
L 433.530853 165.183176 
L 435.643193 165.578132 
L 438.459645 165.7604 
L 441.276097 165.842141 
L 449.725454 165.922908 
L 468.032394 165.941405 
L 546.188947 165.94356 
L 554.638304 165.943494 
L 554.638304 165.943494 
" clip-path="url(#p7d1196b920)" style="fill: none; stroke: #000000; stroke-width: 0.5; stroke-linecap: square"/>
   </g>
   <g id="line2d_30">
    <path d="M 343.404379 165.938998 
L 356.782527 165.721622 
L 358.190753 165.618135 
L 358.894867 165.427284 
L 359.59898 165.083218 
L 360.303093 164.54257 
L 361.007206 163.745643 
L 361.711319 162.634106 
L 362.415432 161.165778 
L 363.119545 159.301954 
L 363.823658 156.943329 
L 364.527771 153.824987 
L 365.231884 149.497031 
L 365.935997 143.568556 
L 366.64011 136.026007 
L 367.344224 126.974102 
L 368.048337 115.845732 
L 371.568902 48.987394 
L 372.273015 41.772204 
L 372.977128 37.799086 
L 373.681241 35.388382 
L 374.385354 34.822434 
L 375.089467 35.193186 
L 376.497694 35.300676 
L 377.90592 35.224091 
L 378.610033 35.63158 
L 379.314146 36.767593 
L 380.018259 39.332511 
L 380.722372 42.7602 
L 381.426485 48.072985 
L 382.130598 54.711591 
L 382.834711 62.620519 
L 386.355277 109.168342 
L 387.763503 123.703496 
L 389.171729 134.63322 
L 390.579955 142.659837 
L 391.988181 148.427073 
L 393.396408 152.579279 
L 394.804634 155.612934 
L 396.21286 157.826123 
L 397.621086 159.476465 
L 399.029312 160.751107 
L 400.437538 161.744463 
L 402.549878 162.805123 
L 404.662217 163.564344 
L 407.478669 164.242904 
L 411.703348 164.868517 
L 416.632139 165.38455 
L 422.969157 165.841538 
L 429.306175 165.934167 
L 465.215942 165.943444 
L 554.638304 165.943626 
L 554.638304 165.943626 
" clip-path="url(#p7d1196b920)" style="fill: none; stroke: #d62728; stroke-width: 1.5; stroke-linecap: square"/>
   </g>
   <g id="patch_9">
    <path d="M 332.842682 172.6 
L 332.842682 26.16 
" style="fill: none; stroke: #000000; stroke-width: 0.8; stroke-linejoin: miter; stroke-linecap: square"/>
   </g>
   <g id="patch_10">
    <path d="M 565.2 172.6 
L 565.2 26.16 
" style="fill: none; stroke: #000000; stroke-width: 0.8; stroke-linejoin: miter; stroke-linecap: square"/>
   </g>
   <g id="patch_11">
    <path d="M 332.842682 172.6 
L 565.2 172.6 
" style="fill: none; stroke: #000000; stroke-width: 0.8; stroke-linejoin: miter; stroke-linecap: square"/>
   </g>
   <g id="patch_12">
    <path d="M 332.842682 26.16 
L 565.2 26.16 
" style="fill: none; stroke: #000000; stroke-width: 0.8; stroke-linejoin: miter; stroke-linecap: square"/>
   </g>
   <g id="text_20">
    <!-- Spectrum -->
    <g transform="translate(419.946654 20.16) scale(0.12 -0.12)">
     <use xlink:href="#DejaVuSans-53"/>
     <use xlink:href="#DejaVuSans-70" x="63.476562"/>
     <use xlink:href="#DejaVuSans-65" x="126.953125"/>
     <use xlink:href="#DejaVuSans-63" x="188.476562"/>
     <use xlink:href="#DejaVuSans-74" x="243.457031"/>
     <use xlink:href="#DejaVuSans-72" x="282.666016"/>
     <use xlink:href="#DejaVuSans-75" x="323.779297"/>
     <use xlink:href="#DejaVuSans-6d" x="387.158203"/>
    </g>
   </g>
  </g>
 </g>
 <defs>
  <clipPath id="p4385235a2c">
   <rect x="53.219481" y="26.16" width="232.357318" height="146.44"/>
  </clipPath>
  <clipPath id="p7d1196b920">
   <rect x="332.842682" y="26.16" width="232.357318" height="146.44"/>
  </clipPath>
 </defs>
</svg>
